<svg width="83" height="71" viewBox="0 0 83 71" fill="none" xmlns="http://www.w3.org/2000/svg">
<rect width="83" height="71" fill="#1F1F1F"/>
<path d="M-19032 -2058C-19032 -2059.1 -19031.1 -2060 -19030 -2060H3659C3660.1 -2060 3661 -2059.1 3661 -2058V1051C3661 1052.1 3660.1 1053 3659 1053H-19030C-19031.1 1053 -19032 1052.1 -19032 1051V-2058Z" fill="#E4D6B8"/>
<rect x="-147" y="-100" width="369" height="367" stroke="#BA0000" stroke-width="10" stroke-dasharray="20 20"/>
<rect x="-79" y="-23" width="240" height="208" rx="12" fill="white"/>
<path d="M3.90507 67.6525C9.18656 67.8556 12.2261 66.4328 14.468 64.6055C16.0931 63.281 17.266 62.1679 18.5383 57.4967L20.7949 49.7604C14.4671 48.2729 11.534 47.7962 10.3594 48.3547C8.53118 48.3547 5.13126 46.7035 3.81787 51.4029L2.21002 57.6419L0.0455175 67.0431C1.46748 67.4494 3.29613 67.6291 3.90507 67.6525Z" fill="white"/>
<path d="M3.90507 67.6525C9.18656 67.8556 12.2261 66.4328 14.468 64.6055C16.0931 63.281 17.266 62.1679 18.5383 57.4967L20.7949 49.7604C14.4671 48.2729 11.534 47.7962 10.3594 48.3547C8.53118 48.3547 5.13126 46.7035 3.81787 51.4029L2.21002 57.6419L0.0455175 67.0431C1.46748 67.4494 3.29613 67.6291 3.90507 67.6525Z" fill="url(#paint0_linear_6983_70499)"/>
<path d="M19.6343 53.7171L3.5918 52.6749L20.0457 52.4983L19.6343 53.7171Z" fill="#B94500"/>
<path d="M9.25283 30.2879C9.75265 27.3773 10.8123 24.8578 13.1447 21.9473C14.6344 20.1595 18.4262 16.9113 22.692 16.8689L56.8998 16.6658C55.8029 20.9316 52.8236 25.8745 51.5371 27.4319C48.4901 31.4946 44.8337 32.3071 40.9741 32.5102L19.8323 32.7134H8.87891L9.25283 30.2879Z" fill="white"/>
<path d="M9.25283 30.2879C9.75265 27.3773 10.8123 24.8578 13.1447 21.9473C14.6344 20.1595 18.4262 16.9113 22.692 16.8689L56.8998 16.6658C55.8029 20.9316 52.8236 25.8745 51.5371 27.4319C48.4901 31.4946 44.8337 32.3071 40.9741 32.5102L19.8323 32.7134H8.87891L9.25283 30.2879Z" fill="url(#paint1_linear_6983_70499)"/>
<path d="M40.9858 32.51L19.844 32.7131H8.89062C8.89062 31.088 13.1463 24.3846 21.2818 24.3846H39.9702C49.9237 24.3846 55.8688 19.5771 56.9115 16.6655C55.8146 20.9313 52.8353 25.8743 51.5488 27.4316C48.5018 31.4943 44.8454 32.3069 40.9858 32.51Z" fill="white"/>
<path d="M40.9858 32.51L19.844 32.7131H8.89062C8.89062 31.088 13.1463 24.3846 21.2818 24.3846H39.9702C49.9237 24.3846 55.8688 19.5771 56.9115 16.6655C55.8146 20.9313 52.8353 25.8743 51.5488 27.4316C48.5018 31.4943 44.8454 32.3069 40.9858 32.51Z" fill="url(#paint2_linear_6983_70499)"/>
<path d="M4.00351 49.9799C5.01918 46.1203 6.03485 43.4796 7.86306 41.2451C9.285 39.5072 12.5273 36.776 18.2151 36.776L45.2398 36.573C45.2398 43.0733 41.7865 46.5266 40.9739 47.5422C36.7081 51.6049 33.6611 52.2143 28.7859 52.4175L12.9551 52.6206H3.5293L4.00351 49.9799Z" fill="white"/>
<path d="M4.00351 49.9799C5.01918 46.1203 6.03485 43.4796 7.86306 41.2451C9.285 39.5072 12.5273 36.776 18.2151 36.776L45.2398 36.573C45.2398 43.0733 41.7865 46.5266 40.9739 47.5422C36.7081 51.6049 33.6611 52.2143 28.7859 52.4175L12.9551 52.6206H3.5293L4.00351 49.9799Z" fill="url(#paint3_linear_6983_70499)"/>
<path d="M29.9992 52.2141L12.7303 52.6204H3.5918C3.5918 51.0158 6.43568 46.9326 13.5454 46.5263C18.1402 46.2638 22.4781 46.5263 27.7648 46.5263C38.3277 46.5263 44.2186 40.6354 45.2343 36.5728C45.2343 41.0417 43.7146 43.973 42.5936 45.5107C39.7497 49.9796 34.2651 52.2141 29.9992 52.2141Z" fill="white"/>
<path d="M29.9992 52.2141L12.7303 52.6204H3.5918C3.5918 51.0158 6.43568 46.9326 13.5454 46.5263C18.1402 46.2638 22.4781 46.5263 27.7648 46.5263C38.3277 46.5263 44.2186 40.6354 45.2343 36.5728C45.2343 41.0417 43.7146 43.973 42.5936 45.5107C39.7497 49.9796 34.2651 52.2141 29.9992 52.2141Z" fill="url(#paint4_linear_6983_70499)"/>
<path d="M18.2139 39.4167C11.226 39.4167 6.87896 43.073 5.66016 44.9013C9.07281 37.3853 14.7606 36.7759 19.0264 36.7759C26.1361 36.7759 42.6306 36.5728 45.2307 36.5728C34.6677 40.8386 26.9486 39.4167 18.2139 39.4167Z" fill="white"/>
<path d="M18.2139 39.4167C11.226 39.4167 6.87896 43.073 5.66016 44.9013C9.07281 37.3853 14.7606 36.7759 19.0264 36.7759C26.1361 36.7759 42.6306 36.5728 45.2307 36.5728C34.6677 40.8386 26.9486 39.4167 18.2139 39.4167Z" fill="url(#paint5_linear_6983_70499)"/>
<path d="M67.043 3.66256C67.043 2.57973 67.043 2.03832 67.2079 1.60709C67.4618 0.943203 67.9862 0.418756 68.6501 0.164895C69.0813 0 69.6227 0 70.7056 0H71.4186C72.5015 0 73.0429 0 73.4741 0.164895C74.138 0.418756 74.6624 0.943203 74.9163 1.60709C75.0812 2.03832 75.0812 2.57973 75.0812 3.66256V3.66256C75.0812 4.74539 75.0812 5.2868 75.2461 5.71803C75.4999 6.38192 76.0244 6.90636 76.6883 7.16023C77.1195 7.32512 77.6716 7.32512 78.7759 7.32512V7.32512C79.9413 7.32512 80.524 7.32512 80.9762 7.50868C81.602 7.76269 82.0984 8.25907 82.3524 8.88485C82.5359 9.33707 82.5359 9.90888 82.5359 11.0525V11.7331C82.5359 12.7856 82.5359 13.3118 82.38 13.7324C82.1268 14.4155 81.5881 14.9541 80.905 15.2074C80.4845 15.3633 79.9583 15.3633 78.9058 15.3633V15.3633C77.8534 15.3633 77.3271 15.3633 76.9066 15.5192C76.2235 15.7725 75.6848 16.3111 75.4316 16.9942C75.2757 17.4148 75.2757 17.9517 75.2757 19.0256V19.0256C75.2757 20.1606 75.2757 20.7281 75.1016 21.1699C74.8474 21.8146 74.3371 22.325 73.6923 22.5791C73.2505 22.7532 72.6939 22.7532 71.5807 22.7532H70.6731C69.6207 22.7532 69.0945 22.7532 68.6739 22.5973C67.9908 22.344 67.4522 21.8054 67.1989 21.1223C67.043 20.7017 67.043 20.1755 67.043 19.1231V19.1231C67.043 18.0706 67.043 17.5444 66.8871 17.1239C66.6338 16.4408 66.0952 15.9021 65.4121 15.6489C64.9915 15.4929 64.4653 15.4929 63.4129 15.4929H63.2832C62.1092 15.4929 61.5222 15.4929 61.0596 15.2997C60.4528 15.0461 59.9703 14.5636 59.7167 13.9568C59.5234 13.4942 59.5234 12.9072 59.5234 11.7332V11.0849C59.5234 9.91086 59.5234 9.32384 59.7167 8.86131C59.9703 8.25444 60.4528 7.77194 61.0596 7.51837C61.5222 7.32512 62.1092 7.32512 63.2832 7.32512H63.3805C64.4633 7.32512 65.0047 7.32512 65.4359 7.16023C66.0998 6.90636 66.6243 6.38192 66.8781 5.71803C67.043 5.2868 67.043 4.74539 67.043 3.66256V3.66256Z" fill="url(#paint6_linear_6983_70499)"/>
<path d="M73.5083 10.638C74.8189 8.93021 75.4743 8.07632 75.6948 7.89479C76.2077 7.47261 76.0726 7.53922 76.7197 7.38938C76.998 7.32496 77.5968 7.32496 78.7943 7.32495V7.32495C79.9513 7.32495 80.5298 7.32495 80.9865 7.51274C81.604 7.7666 82.0943 8.25687 82.3481 8.87434C82.5359 9.3311 82.5359 9.90959 82.5359 11.0666V11.733C82.5359 12.7854 82.5359 13.3116 82.38 13.7322C82.1267 14.4153 81.5881 14.9539 80.905 15.2072C80.4844 15.3631 79.9582 15.3631 78.9058 15.3631V15.3631C77.8533 15.3631 77.3271 15.3631 76.9065 15.519C76.2234 15.7723 75.6848 16.3109 75.4315 16.994C75.2756 17.4146 75.2756 17.9515 75.2756 19.0254V19.0254C75.2756 20.1604 75.2756 20.7279 75.1015 21.1697C74.8474 21.8145 74.337 22.3248 73.6923 22.5789C73.2505 22.753 72.6939 22.753 71.5807 22.753H71.1124C69.6467 22.753 68.9139 22.753 68.3597 22.4553C67.9274 22.223 67.573 21.8686 67.3407 21.4363C67.043 20.8822 67.043 20.1493 67.043 18.6836V18.6836C67.043 17.5241 67.043 16.9444 67.1581 16.5783C67.2824 16.1827 67.3208 16.1099 67.577 15.7838C67.814 15.482 68.5033 15.0101 69.8819 14.0663C70.605 13.5713 71.4196 12.9156 72.2683 12.0531C72.7638 11.5496 73.172 11.0762 73.5083 10.638Z" fill="url(#paint7_linear_6983_70499)"/>
<path d="M-19030 -2059H3659V-2061H-19030V-2059ZM3660 -2058V1051H3662V-2058H3660ZM3659 1052H-19030V1054H3659V1052ZM-19031 1051V-2058H-19033V1051H-19031ZM-19030 1052C-19030.6 1052 -19031 1051.55 -19031 1051H-19033C-19033 1052.66 -19031.7 1054 -19030 1054V1052ZM3660 1051C3660 1051.55 3659.55 1052 3659 1052V1054C3660.66 1054 3662 1052.66 3662 1051H3660ZM3659 -2059C3659.55 -2059 3660 -2058.55 3660 -2058H3662C3662 -2059.66 3660.66 -2061 3659 -2061V-2059ZM-19030 -2061C-19031.7 -2061 -19033 -2059.66 -19033 -2058H-19031C-19031 -2058.55 -19030.6 -2059 -19030 -2059V-2061Z" fill="white" fill-opacity="0.1"/>
<defs>
<linearGradient id="paint0_linear_6983_70499" x1="-0.000443836" y1="70.6299" x2="13.8874" y2="46.0286" gradientUnits="userSpaceOnUse">
<stop stop-color="#FE6E1F"/>
<stop offset="0.487386" stop-color="#EA600E"/>
<stop offset="1" stop-color="#B74808"/>
</linearGradient>
<linearGradient id="paint1_linear_6983_70499" x1="55.951" y1="24.6015" x2="11.1132" y2="24.6015" gradientUnits="userSpaceOnUse">
<stop stop-color="#E66A20"/>
<stop offset="0.267969" stop-color="#F4782D" stop-opacity="0.95"/>
<stop offset="0.573235" stop-color="#F17D36" stop-opacity="0.94"/>
<stop offset="0.783299" stop-color="#FB8D51"/>
</linearGradient>
<linearGradient id="paint2_linear_6983_70499" x1="53.5697" y1="26.9822" x2="10.081" y2="27.7758" gradientUnits="userSpaceOnUse">
<stop stop-color="#CF5A14"/>
<stop offset="0.499858" stop-color="#E66B23" stop-opacity="0.9"/>
<stop offset="0.770535" stop-color="#FA7025" stop-opacity="0.8"/>
</linearGradient>
<linearGradient id="paint3_linear_6983_70499" x1="45.6342" y1="44.4414" x2="3.17714" y2="44.4414" gradientUnits="userSpaceOnUse">
<stop stop-color="#F9833A"/>
<stop offset="0.36428" stop-color="#FA741D"/>
<stop offset="0.725175" stop-color="#F86E23"/>
</linearGradient>
<linearGradient id="paint4_linear_6983_70499" x1="49.6045" y1="42.0605" x2="2.37299" y2="52.8235" gradientUnits="userSpaceOnUse">
<stop stop-color="#E45E0E"/>
<stop offset="0.333286" stop-color="#E26C24"/>
<stop offset="0.750019" stop-color="#F96F24"/>
</linearGradient>
<linearGradient id="paint5_linear_6983_70499" x1="44.4426" y1="38.0925" x2="7.54065" y2="38.8861" gradientUnits="userSpaceOnUse">
<stop stop-color="#F97E30"/>
<stop offset="0.517405" stop-color="#FA7025" stop-opacity="0.9"/>
<stop offset="1" stop-color="#FF8644" stop-opacity="0.79"/>
</linearGradient>
<linearGradient id="paint6_linear_6983_70499" x1="73.6076" y1="13.8389" x2="42.8049" y2="-10.714" gradientUnits="userSpaceOnUse">
<stop offset="0.121996" stop-color="#F96A1D"/>
<stop offset="1" stop-color="#F96F24" stop-opacity="0"/>
</linearGradient>
<linearGradient id="paint7_linear_6983_70499" x1="71.8219" y1="11.6067" x2="87.8929" y2="24.9992" gradientUnits="userSpaceOnUse">
<stop stop-color="#E1651B"/>
<stop offset="0.973102" stop-color="#F07934" stop-opacity="0.42"/>
</linearGradient>
</defs>
</svg>
